<svg width="69" height="98" viewBox="0 0 69 98" fill="none" xmlns="http://www.w3.org/2000/svg">
<path opacity="0.4" d="M0 80.4559C29.0238 59.7138 43.5357 43.2205 43.5357 30.9762C43.5357 23.4834 40.2956 19.7371 33.8155 19.7371C30.1647 19.7371 27.4722 21.0163 25.7381 23.5748C24.0952 26.1333 23.1825 30.1082 23 35.4993H0.136905C0.684524 23.7119 4.24405 14.8485 10.8155 8.90909C17.3869 2.9697 25.6925 0 35.7321 0C46.2282 0 54.123 2.64988 59.4167 7.94965C64.8016 13.2494 67.494 20.1483 67.494 28.6462C67.494 38.0578 63.8889 47.2867 56.6786 56.3329C49.4683 65.2876 40.8433 72.8718 30.8036 79.0853H69V98H0V80.4559Z" fill="url(#paint0_linear_117_199)"/>
<defs>
<linearGradient id="paint0_linear_117_199" x1="-7.77941" y1="-49" x2="42.5351" y2="112.219" gradientUnits="userSpaceOnUse">
<stop offset="0.0991304" stop-color="#6A0CF5"/>
<stop offset="1" stop-color="#18F29D"/>
</linearGradient>
</defs>
</svg>
