<svg width="69" height="102" viewBox="0 0 69 102" fill="none" xmlns="http://www.w3.org/2000/svg">
<path opacity="0.4" d="M35.3811 0C42.0688 0 47.8075 1.18658 52.5972 3.55973C57.387 5.84161 61.002 9.03624 63.442 13.1436C65.9725 17.1597 67.2377 21.7235 67.2377 26.8349C67.2377 33.1329 65.611 38.1987 62.3576 42.0322C59.1945 45.8658 55.2181 48.2846 50.4283 49.2886V49.9732C62.8094 53.9893 69 61.7933 69 73.3852C69 78.953 67.7348 83.9275 65.2043 88.3087C62.6739 92.5987 58.9686 95.9758 54.0884 98.4403C49.2986 100.813 43.5147 102 36.7367 102C25.7112 102 16.945 99.2617 10.4381 93.7852C4.02161 88.3087 0.54224 79.957 0 68.7302H22.6385C22.8193 73.0201 23.9941 76.3973 26.1631 78.8617C28.332 81.3262 31.4951 82.5584 35.6523 82.5584C38.9961 82.5584 41.6169 81.5544 43.5147 79.5463C45.5029 77.5383 46.4971 74.9369 46.4971 71.7423C46.4971 63.8013 40.8035 59.8309 29.4165 59.8309H25.0786V40.8H29.2809C39.4931 40.9826 44.5992 37.2859 44.5992 29.7101C44.5992 26.4242 43.6955 23.9141 41.888 22.1799C40.1709 20.3544 37.8212 19.4416 34.8389 19.4416C31.5855 19.4416 29.0098 20.5826 27.112 22.8644C25.2141 25.055 24.1297 28.0215 23.8585 31.7638H1.22004C1.67191 21.5409 4.83497 13.6913 10.7092 8.21476C16.5835 2.73826 24.8075 0 35.3811 0Z" fill="url(#paint0_linear_117_215)"/>
<defs>
<linearGradient id="paint0_linear_117_215" x1="-24.1165" y1="-13.1722" x2="85.8307" y2="120.356" gradientUnits="userSpaceOnUse">
<stop offset="0.120042" stop-color="#6A0CF5"/>
<stop offset="0.889697" stop-color="#18F29D"/>
</linearGradient>
</defs>
</svg>
