<svg width="68" height="54" viewBox="0 0 68 54" fill="none" xmlns="http://www.w3.org/2000/svg">
<path d="M58.1445 28.7634H52.9352C53.4662 30.1189 53.7563 31.5818 53.7563 33.1064V51.4639C53.7563 52.0996 53.6376 52.7098 53.4217 53.2772H62.0339C65.251 53.2772 67.8682 50.8369 67.8682 47.8373V37.8298C67.8683 32.8307 63.5062 28.7634 58.1445 28.7634Z" fill="url(#paint0_linear_117_262)"/>
<path d="M14.6205 33.1067C14.6205 31.5819 14.9106 30.1192 15.4415 28.7637H10.2322C4.8705 28.7637 0.508423 32.8309 0.508423 37.8302V47.8377C0.508423 50.8372 3.12559 53.2776 6.34269 53.2776H14.955C14.7391 52.7099 14.6205 52.0999 14.6205 51.4642V33.1067Z" fill="url(#paint1_linear_117_262)"/>
<path d="M40.1431 24.0403H28.2338C22.8721 24.0403 18.51 28.1075 18.51 33.1068V51.4643C18.51 52.4657 19.3807 53.2776 20.4548 53.2776H47.9221C48.9962 53.2776 49.8668 52.4658 49.8668 51.4643V33.1068C49.8668 28.1075 45.5048 24.0403 40.1431 24.0403Z" fill="url(#paint2_linear_117_262)"/>
<path d="M34.1884 0C27.7403 0 22.4944 4.89133 22.4944 10.9037C22.4944 14.9819 24.9084 18.5436 28.4735 20.4136C30.1645 21.3005 32.114 21.8074 34.1884 21.8074C36.2629 21.8074 38.2124 21.3005 39.9034 20.4136C43.4686 18.5436 45.8825 14.9818 45.8825 10.9037C45.8825 4.89145 40.6366 0 34.1884 0Z" fill="url(#paint3_linear_117_262)"/>
<path d="M13.6539 10.1628C8.83151 10.1628 4.90833 13.8209 4.90833 18.3173C4.90833 22.8138 8.83151 26.4718 13.6539 26.4718C14.8772 26.4718 16.042 26.2355 17.1002 25.8108C18.9297 25.0764 20.4382 23.7764 21.3716 22.1479C22.0268 21.005 22.3995 19.7011 22.3995 18.3173C22.3995 13.821 18.4763 10.1628 13.6539 10.1628Z" fill="url(#paint4_linear_117_262)"/>
<path d="M54.7229 10.1628C49.9005 10.1628 45.9773 13.8209 45.9773 18.3173C45.9773 19.7013 46.35 21.0051 47.0052 22.1479C47.9386 23.7765 49.4471 25.0765 51.2766 25.8108C52.3348 26.2355 53.4996 26.4718 54.7229 26.4718C59.5453 26.4718 63.4685 22.8138 63.4685 18.3173C63.4685 13.8209 59.5453 10.1628 54.7229 10.1628Z" fill="url(#paint5_linear_117_262)"/>
<defs>
<linearGradient id="paint0_linear_117_262" x1="60.4017" y1="28.7634" x2="60.4017" y2="53.2772" gradientUnits="userSpaceOnUse">
<stop stop-color="#6425ED"/>
<stop offset="1" stop-color="#6425ED" stop-opacity="0"/>
</linearGradient>
<linearGradient id="paint1_linear_117_262" x1="7.97498" y1="28.7637" x2="7.97498" y2="53.2776" gradientUnits="userSpaceOnUse">
<stop stop-color="#6425ED"/>
<stop offset="1" stop-color="#6425ED" stop-opacity="0"/>
</linearGradient>
<linearGradient id="paint2_linear_117_262" x1="34.1884" y1="24.0403" x2="34.1884" y2="53.2776" gradientUnits="userSpaceOnUse">
<stop stop-color="#6425ED"/>
<stop offset="1" stop-color="#6425ED" stop-opacity="0"/>
</linearGradient>
<linearGradient id="paint3_linear_117_262" x1="34.1884" y1="0" x2="34.1884" y2="21.8074" gradientUnits="userSpaceOnUse">
<stop stop-color="#6425ED"/>
<stop offset="1" stop-color="#6425ED" stop-opacity="0"/>
</linearGradient>
<linearGradient id="paint4_linear_117_262" x1="13.6539" y1="10.1628" x2="13.6539" y2="26.4718" gradientUnits="userSpaceOnUse">
<stop stop-color="#6425ED"/>
<stop offset="1" stop-color="#6425ED" stop-opacity="0"/>
</linearGradient>
<linearGradient id="paint5_linear_117_262" x1="54.7229" y1="10.1628" x2="54.7229" y2="26.4718" gradientUnits="userSpaceOnUse">
<stop stop-color="#6425ED"/>
<stop offset="1" stop-color="#6425ED" stop-opacity="0"/>
</linearGradient>
</defs>
</svg>
