<svg width="68" height="63" viewBox="0 0 68 63" fill="none" xmlns="http://www.w3.org/2000/svg">
<path d="M26.755 5.0281C29.9246 5.0281 32.5588 2.84066 33.0123 0H20.4978C20.9512 2.84066 23.5852 5.0281 26.755 5.0281Z" fill="url(#paint0_linear_117_284)"/>
<path d="M44.2263 1.84004C44.2263 0.823848 43.3427 0 42.2529 0H36.9843C36.51 4.87415 32.1022 8.70818 26.7551 8.70818C21.4076 8.70818 17.0002 4.87439 16.526 0H11.2574C10.1675 0 9.28394 0.823848 9.28394 1.84004V39.0075C9.28394 40.0237 10.1675 40.8476 11.2574 40.8476H40.2402V36.1861C40.2402 33.7737 41.9091 31.7194 44.2263 30.9701V1.84004Z" fill="url(#paint1_linear_117_284)"/>
<path d="M50.306 27.7833C50.6715 28.3737 51.3348 28.7037 52.0169 28.7037C52.3517 28.7037 52.691 28.6242 53.0017 28.4568L56.0502 26.8157L59.0425 28.4508C59.9828 28.9644 61.1917 28.6704 61.7429 27.7936C62.2938 26.9169 61.9784 25.7896 61.0381 25.2758L57.0554 23.0997C56.443 22.7652 55.6855 22.7628 55.0709 23.0937L51.0283 25.2697C50.0845 25.7778 49.761 26.9032 50.306 27.7833Z" fill="url(#paint2_linear_117_284)"/>
<path d="M59.0425 57.2019L56.0501 58.837L53.0017 57.1959C52.0577 56.6876 50.8509 56.9892 50.306 57.8694C49.761 58.7495 50.0844 59.8749 51.0282 60.3829L55.0709 62.559C55.3762 62.7234 55.717 62.8056 56.0576 62.8056C56.4024 62.8056 56.7474 62.7213 57.0554 62.553L61.038 60.3769C61.9783 59.8631 62.2939 58.7358 61.7428 57.8591C61.1918 56.9822 59.9826 56.6882 59.0425 57.2019Z" fill="url(#paint3_linear_117_284)"/>
<path d="M65.8948 34.3462H46.1604C45.0706 34.3462 44.187 35.17 44.187 36.1862V50.9066C44.187 51.9228 45.0706 52.7466 46.1604 52.7466H65.8948C66.9846 52.7466 67.8682 51.9228 67.8682 50.9066V36.1862C67.8682 35.17 66.9846 34.3462 65.8948 34.3462ZM57.3432 49.4347H54.712C53.6221 49.4347 52.7385 48.6108 52.7385 47.5946C52.7385 46.7938 53.2882 46.1144 54.0542 45.8615V43.5403C53.0259 43.4768 52.2123 42.6812 52.2123 41.7065C52.2123 40.7257 53.0359 39.9265 54.0728 39.8717C54.1993 38.9692 55.0252 38.2719 56.0276 38.2719C57.1175 38.2719 58.001 39.0957 58.001 40.1119V45.8617C58.767 46.1145 59.3166 46.794 59.3166 47.5947C59.3166 48.6108 58.4331 49.4347 57.3432 49.4347Z" fill="url(#paint4_linear_117_284)"/>
<path d="M48.1731 16.9454H51.0283C52.1181 16.9454 53.0017 16.1216 53.0017 15.1054V7.64574C53.0017 4.48185 50.9446 1.7608 48.0205 0.599854C48.1192 0.998897 48.1731 1.41377 48.1731 1.84029V16.9454Z" fill="url(#paint5_linear_117_284)"/>
<path d="M0.508423 7.6458V15.1056C0.508423 16.1218 1.39199 16.9456 2.48185 16.9456H5.33701V1.84023C5.33701 1.4137 5.39095 0.998836 5.48963 0.599792C2.56553 1.76086 0.508423 4.48191 0.508423 7.6458H0.508423Z" fill="url(#paint6_linear_117_284)"/>
<defs>
<linearGradient id="paint0_linear_117_284" x1="26.755" y1="0" x2="26.755" y2="5.0281" gradientUnits="userSpaceOnUse">
<stop stop-color="#6425ED"/>
<stop offset="1" stop-color="#6425ED" stop-opacity="0"/>
</linearGradient>
<linearGradient id="paint1_linear_117_284" x1="26.7551" y1="0" x2="26.7551" y2="40.8476" gradientUnits="userSpaceOnUse">
<stop stop-color="#6425ED"/>
<stop offset="1" stop-color="#6425ED" stop-opacity="0"/>
</linearGradient>
<linearGradient id="paint2_linear_117_284" x1="56.0276" y1="22.8472" x2="56.0276" y2="28.7037" gradientUnits="userSpaceOnUse">
<stop stop-color="#6425ED"/>
<stop offset="1" stop-color="#6425ED" stop-opacity="0"/>
</linearGradient>
<linearGradient id="paint3_linear_117_284" x1="56.0276" y1="56.949" x2="56.0276" y2="62.8056" gradientUnits="userSpaceOnUse">
<stop stop-color="#6425ED"/>
<stop offset="1" stop-color="#6425ED" stop-opacity="0"/>
</linearGradient>
<linearGradient id="paint4_linear_117_284" x1="56.0276" y1="34.3462" x2="56.0276" y2="52.7466" gradientUnits="userSpaceOnUse">
<stop stop-color="#6425ED"/>
<stop offset="1" stop-color="#6425ED" stop-opacity="0"/>
</linearGradient>
<linearGradient id="paint5_linear_117_284" x1="50.5111" y1="0.599854" x2="50.5111" y2="16.9454" gradientUnits="userSpaceOnUse">
<stop stop-color="#6425ED"/>
<stop offset="1" stop-color="#6425ED" stop-opacity="0"/>
</linearGradient>
<linearGradient id="paint6_linear_117_284" x1="2.99902" y1="0.599792" x2="2.99902" y2="16.9456" gradientUnits="userSpaceOnUse">
<stop stop-color="#6425ED"/>
<stop offset="1" stop-color="#6425ED" stop-opacity="0"/>
</linearGradient>
</defs>
</svg>
