<svg width="68" height="63" viewBox="0 0 68 63" fill="none" xmlns="http://www.w3.org/2000/svg">
<path d="M41.7349 38.7295H45.7018V42.4108H41.7349V38.7295Z" fill="url(#paint0_linear_117_292)"/>
<path d="M21.9001 20.3232H25.8671V24.0045H21.9001V20.3232Z" fill="url(#paint1_linear_117_292)"/>
<path d="M57.769 22.2055V9.19794H43.7519L33.8403 0L23.9288 9.19794H9.91169V22.2055L0 31.4034L9.91169 40.6014V53.6091H23.9288L33.8403 62.8069L43.7519 53.6091H57.769V40.6013L67.6805 31.4033L57.769 22.2055ZM17.9333 16.6419H29.8341V27.6857H17.9333V16.6419ZM21.3193 45.553L18.5143 42.9499L46.2829 17.1809L49.088 19.784L21.3193 45.553ZM49.6689 46.0921H37.768V35.0483H49.6689V46.0921Z" fill="url(#paint2_linear_117_292)"/>
<defs>
<linearGradient id="paint0_linear_117_292" x1="43.7183" y1="38.7295" x2="43.7183" y2="42.4108" gradientUnits="userSpaceOnUse">
<stop stop-color="#6425ED"/>
<stop offset="1" stop-color="#6425ED" stop-opacity="0"/>
</linearGradient>
<linearGradient id="paint1_linear_117_292" x1="23.8836" y1="20.3232" x2="23.8836" y2="24.0045" gradientUnits="userSpaceOnUse">
<stop stop-color="#6425ED"/>
<stop offset="1" stop-color="#6425ED" stop-opacity="0"/>
</linearGradient>
<linearGradient id="paint2_linear_117_292" x1="33.8403" y1="0" x2="33.8403" y2="62.8069" gradientUnits="userSpaceOnUse">
<stop stop-color="#6425ED"/>
<stop offset="1" stop-color="#6425ED" stop-opacity="0"/>
</linearGradient>
</defs>
</svg>
