<svg width="67" height="63" viewBox="0 0 67 63" fill="none" xmlns="http://www.w3.org/2000/svg">
<path d="M63.2608 31.4034C63.2608 28.983 62.93 26.5888 62.2761 24.2687L66.0782 21.6607L58.6985 9.74277L54.3686 11.5117C50.6665 8.08453 46.1336 5.6423 41.1216 4.37476L40.6005 0H25.8412L25.3199 4.37464C20.3081 5.64218 15.7751 8.08441 12.0732 11.5115L7.74311 9.74265L0.363525 21.6606L4.16554 24.2687C3.51167 26.5888 3.18093 28.9831 3.18093 31.4034C3.18093 33.8236 3.51181 36.2179 4.16554 38.5381L0.363525 41.146L7.74311 53.064L12.0732 51.2951C15.7752 54.7224 20.3082 57.1646 25.3199 58.432L25.8412 62.8068H40.6006L41.1218 58.432C46.1338 57.1646 50.6668 54.7222 54.3688 51.2951L58.6988 53.064L66.0785 41.146L62.2764 38.5381C62.9301 36.2175 63.2608 33.8236 63.2608 31.4034ZM41.0555 27.191L43.8754 24.6161L51.0932 31.4879L43.7232 38.2179L40.9617 35.5887L45.5118 31.4337L41.0555 27.191ZM32.3453 44.2129L28.4831 43.4548L34.0964 18.5939L37.9587 19.352L32.3453 44.2129ZM25.48 35.5886L22.7186 38.2178L15.3484 31.4878L22.5662 24.616L25.3861 27.1909L20.9298 31.4336L25.48 35.5886Z" fill="url(#paint0_linear_117_282)"/>
<defs>
<linearGradient id="paint0_linear_117_282" x1="33.221" y1="0" x2="33.221" y2="62.8068" gradientUnits="userSpaceOnUse">
<stop stop-color="#6425ED"/>
<stop offset="1" stop-color="#6425ED" stop-opacity="0"/>
</linearGradient>
</defs>
</svg>
