<svg width="60" height="57" viewBox="0 0 60 57" fill="none" xmlns="http://www.w3.org/2000/svg">
<path d="M56.0479 27.478H47.5878C46.7464 27.478 45.9395 27.7882 45.3445 28.3403C44.7495 28.8924 44.4153 29.6413 44.4153 30.4221C44.4153 31.2029 44.7495 31.9517 45.3445 32.5039C45.9395 33.056 46.7464 33.3662 47.5878 33.3662H56.0479C56.8893 33.3662 57.6962 33.056 58.2912 32.5039C58.8862 31.9517 59.2204 31.2029 59.2204 30.4221C59.2204 29.6413 58.8862 28.8924 58.2912 28.3403C57.6962 27.7882 56.8893 27.478 56.0479 27.478Z" fill="url(#paint0_linear_117_269)"/>
<path d="M16.292 27.4781H14.8052V53.2583L15.1721 53.3662C16.2329 53.4546 17.252 53.7924 18.1332 54.3476C20.7672 56.0246 23.8874 56.9211 27.0818 56.9187H38.0979C37.398 56.0744 37.0167 55.0399 37.0129 53.9747C37.0152 52.8281 37.4501 51.7184 38.2421 50.8384C39.0341 49.9584 40.1333 49.3636 41.3486 49.1572C40.8225 48.554 40.4599 47.8425 40.2913 47.0824C40.1227 46.3223 40.1531 45.5357 40.3799 44.7887C40.6067 44.0418 41.0232 43.3562 41.5946 42.7895C42.1659 42.2228 42.8754 41.7916 43.6635 41.5321C43.1687 41.0286 42.7938 40.4339 42.5634 39.7869C42.3329 39.1399 42.2521 38.4551 42.3261 37.7771C42.4002 37.0992 42.6275 36.4433 42.9931 35.8524C43.3588 35.2614 43.8546 34.7487 44.4482 34.3475C43.8848 33.9666 43.4093 33.4847 43.05 32.9304C42.6907 32.376 42.4547 31.7605 42.3561 31.1201C42.2575 30.4796 42.2983 29.8274 42.476 29.2018C42.6537 28.5763 42.9647 27.9902 43.3907 27.4781H37.8948L37.2011 31.0208C36.8024 33.0558 35.6466 34.8965 33.9353 36.2218C32.224 37.5471 30.0658 38.273 27.8369 38.273H26.4378C26.1573 38.273 25.8883 38.1696 25.69 37.9855C25.4917 37.8015 25.3803 37.5519 25.3803 37.2916C25.3803 37.0313 25.4917 36.7817 25.69 36.5977C25.8883 36.4137 26.1573 36.3103 26.4378 36.3103H27.8369C29.5706 36.3105 31.2495 35.7459 32.5807 34.715C33.9119 33.6842 34.8109 32.2524 35.121 30.6694L35.967 26.3515L37.1884 17.2877C37.2808 16.5972 37.2139 15.8964 36.9921 15.2318C36.7704 14.5672 36.3988 13.954 35.9022 13.4328C35.4056 12.9116 34.7952 12.4943 34.1115 12.2088C33.4278 11.9232 32.6865 11.7758 31.9368 11.7764H31.4747C31.2168 11.7762 30.9677 11.8635 30.7743 12.0218C30.5809 12.1801 30.4566 12.3986 30.4246 12.636L29.9307 16.3024C29.5109 19.3858 27.8945 22.2215 25.384 24.2786C22.8735 26.3357 19.6411 27.4732 16.292 27.4781Z" fill="url(#paint1_linear_117_269)"/>
<path d="M50.7603 51.0305H42.3002C41.4588 51.0305 40.6519 51.3407 40.0569 51.8928C39.4619 52.4449 39.1277 53.1938 39.1277 53.9746C39.1277 54.7554 39.4619 55.5042 40.0569 56.0564C40.6519 56.6085 41.4588 56.9187 42.3002 56.9187H50.7603C51.6017 56.9187 52.4086 56.6085 53.0036 56.0564C53.5986 55.5042 53.9328 54.7554 53.9328 53.9746C53.9328 53.1938 53.5986 52.4449 53.0036 51.8928C52.4086 51.3407 51.6017 51.0305 50.7603 51.0305Z" fill="url(#paint2_linear_117_269)"/>
<path d="M53.9329 43.1794H45.4728C44.6314 43.1794 43.8245 43.4896 43.2295 44.0417C42.6345 44.5939 42.3003 45.3427 42.3003 46.1235C42.3003 46.9043 42.6345 47.6532 43.2295 48.2053C43.8245 48.7574 44.6314 49.0676 45.4728 49.0676H53.9329C54.7743 49.0676 55.5812 48.7574 56.1762 48.2053C56.7712 47.6532 57.1054 46.9043 57.1054 46.1235C57.1054 45.3427 56.7712 44.5939 56.1762 44.0417C55.5812 43.4896 54.7743 43.1794 53.9329 43.1794Z" fill="url(#paint3_linear_117_269)"/>
<path d="M12.6901 56.9187V23.5526H0V56.9187H12.6901ZM6.34505 47.1051C7.18167 47.1051 7.99951 47.3354 8.69513 47.7667C9.39076 48.198 9.93293 48.8111 10.2531 49.5284C10.5733 50.2457 10.657 51.0349 10.4938 51.7964C10.3306 52.5578 9.92772 53.2573 9.33614 53.8063C8.74455 54.3552 7.99083 54.7291 7.17029 54.8806C6.34974 55.032 5.49922 54.9543 4.72629 54.6572C3.95335 54.3601 3.29271 53.857 2.82791 53.2114C2.3631 52.5659 2.11502 51.8069 2.11502 51.0306C2.11502 49.9895 2.56068 48.991 3.35396 48.2549C4.14725 47.5187 5.22318 47.1051 6.34505 47.1051Z" fill="url(#paint4_linear_117_269)"/>
<path d="M56.0479 35.3289H47.5878C46.7464 35.3289 45.9395 35.639 45.3445 36.1912C44.7495 36.7433 44.4153 37.4921 44.4153 38.2729C44.4153 39.0537 44.7495 39.8026 45.3445 40.3547C45.9395 40.9068 46.7464 41.217 47.5878 41.217H56.0479C56.8893 41.217 57.6962 40.9068 58.2912 40.3547C58.8862 39.8026 59.2204 39.0537 59.2204 38.2729C59.2204 37.4921 58.8862 36.7433 58.2912 36.1912C57.6962 35.639 56.8893 35.3289 56.0479 35.3289Z" fill="url(#paint5_linear_117_269)"/>
<path d="M6.345 52.993C7.51309 52.993 8.46001 52.1143 8.46001 51.0303C8.46001 49.9464 7.51309 49.0676 6.345 49.0676C5.17691 49.0676 4.22998 49.9464 4.22998 51.0303C4.22998 52.1143 5.17691 52.993 6.345 52.993Z" fill="url(#paint6_linear_117_269)"/>
<path d="M32.7826 7.85084C33.0631 7.85084 33.3321 7.74745 33.5304 7.56341C33.7287 7.37937 33.8401 7.12976 33.8401 6.86949V0.981356C33.8401 0.721084 33.7287 0.471472 33.5304 0.287432C33.3321 0.103392 33.0631 0 32.7826 0C32.5021 0 32.2332 0.103392 32.0348 0.287432C31.8365 0.471472 31.7251 0.721084 31.7251 0.981356V6.86949C31.7251 7.12976 31.8365 7.37937 32.0348 7.56341C32.2332 7.74745 32.5021 7.85084 32.7826 7.85084Z" fill="url(#paint7_linear_117_269)"/>
<path d="M23.81 10.7253C23.9075 10.819 24.0242 10.8937 24.1532 10.9452C24.2823 10.9966 24.421 11.0237 24.5614 11.0248C24.7018 11.0259 24.8411 11.0011 24.9711 10.9518C25.101 10.9024 25.2191 10.8296 25.3184 10.7374C25.4177 10.6453 25.4962 10.5357 25.5494 10.4151C25.6026 10.2945 25.6293 10.1653 25.6281 10.035C25.6269 9.90466 25.5977 9.77589 25.5423 9.65616C25.4869 9.53643 25.4063 9.42814 25.3053 9.33761L20.8193 5.17372C20.621 4.98958 20.352 4.88608 20.0715 4.88599C19.791 4.88589 19.5219 4.98922 19.3235 5.17323C19.1251 5.35724 19.0135 5.60687 19.0134 5.86719C19.0133 6.12752 19.1247 6.37722 19.323 6.56136L23.81 10.7253Z" fill="url(#paint8_linear_117_269)"/>
<path d="M14.8051 18.6458H21.1501C21.4306 18.6458 21.6996 18.5424 21.8979 18.3584C22.0962 18.1743 22.2076 17.9247 22.2076 17.6645C22.2076 17.4042 22.0962 17.1546 21.8979 16.9705C21.6996 16.7865 21.4306 16.6831 21.1501 16.6831H14.8051C14.5246 16.6831 14.2556 16.7865 14.0573 16.9705C13.859 17.1546 13.7476 17.4042 13.7476 17.6645C13.7476 17.9247 13.859 18.1743 14.0573 18.3584C14.2556 18.5424 14.5246 18.6458 14.8051 18.6458Z" fill="url(#paint9_linear_117_269)"/>
<path d="M41.008 11.0128C41.2884 11.0127 41.5574 10.9093 41.7556 10.7253L46.2426 6.56136C46.4409 6.37722 46.5523 6.12752 46.5522 5.86719C46.5521 5.60687 46.4405 5.35724 46.2421 5.17323C46.0437 4.98922 45.7746 4.88589 45.4941 4.88599C45.2135 4.88608 44.9446 4.98958 44.7463 5.17372L40.2603 9.33761C40.1125 9.47486 40.0118 9.6497 39.971 9.84004C39.9302 10.0304 39.9511 10.2277 40.0312 10.407C40.1112 10.5862 40.2467 10.7395 40.4206 10.8473C40.5944 10.9552 40.7988 11.0127 41.008 11.0128Z" fill="url(#paint10_linear_117_269)"/>
<path d="M43.3579 17.6645C43.3579 17.9247 43.4693 18.1743 43.6676 18.3584C43.866 18.5424 44.1349 18.6458 44.4154 18.6458H50.7605C51.0409 18.6458 51.3099 18.5424 51.5082 18.3584C51.7066 18.1743 51.818 17.9247 51.818 17.6645C51.818 17.4042 51.7066 17.1546 51.5082 16.9705C51.3099 16.7865 51.0409 16.6831 50.7605 16.6831H44.4154C44.1349 16.6831 43.866 16.7865 43.6676 16.9705C43.4693 17.1546 43.3579 17.4042 43.3579 17.6645Z" fill="url(#paint11_linear_117_269)"/>
<defs>
<linearGradient id="paint0_linear_117_269" x1="51.8178" y1="27.478" x2="51.8178" y2="33.3662" gradientUnits="userSpaceOnUse">
<stop stop-color="#6425ED"/>
<stop offset="1" stop-color="#6425ED" stop-opacity="0"/>
</linearGradient>
<linearGradient id="paint1_linear_117_269" x1="29.6267" y1="11.7764" x2="29.6267" y2="56.9187" gradientUnits="userSpaceOnUse">
<stop stop-color="#6425ED"/>
<stop offset="1" stop-color="#6425ED" stop-opacity="0"/>
</linearGradient>
<linearGradient id="paint2_linear_117_269" x1="46.5302" y1="51.0305" x2="46.5302" y2="56.9187" gradientUnits="userSpaceOnUse">
<stop stop-color="#6425ED"/>
<stop offset="1" stop-color="#6425ED" stop-opacity="0"/>
</linearGradient>
<linearGradient id="paint3_linear_117_269" x1="49.7029" y1="43.1794" x2="49.7029" y2="49.0676" gradientUnits="userSpaceOnUse">
<stop stop-color="#6425ED"/>
<stop offset="1" stop-color="#6425ED" stop-opacity="0"/>
</linearGradient>
<linearGradient id="paint4_linear_117_269" x1="6.34505" y1="23.5526" x2="6.34505" y2="56.9187" gradientUnits="userSpaceOnUse">
<stop stop-color="#6425ED"/>
<stop offset="1" stop-color="#6425ED" stop-opacity="0"/>
</linearGradient>
<linearGradient id="paint5_linear_117_269" x1="51.8178" y1="35.3289" x2="51.8178" y2="41.217" gradientUnits="userSpaceOnUse">
<stop stop-color="#6425ED"/>
<stop offset="1" stop-color="#6425ED" stop-opacity="0"/>
</linearGradient>
<linearGradient id="paint6_linear_117_269" x1="6.345" y1="49.0676" x2="6.345" y2="52.993" gradientUnits="userSpaceOnUse">
<stop stop-color="#6425ED"/>
<stop offset="1" stop-color="#6425ED" stop-opacity="0"/>
</linearGradient>
<linearGradient id="paint7_linear_117_269" x1="32.7826" y1="0" x2="32.7826" y2="7.85084" gradientUnits="userSpaceOnUse">
<stop stop-color="#6425ED"/>
<stop offset="1" stop-color="#6425ED" stop-opacity="0"/>
</linearGradient>
<linearGradient id="paint8_linear_117_269" x1="22.3208" y1="4.88599" x2="22.3208" y2="11.0248" gradientUnits="userSpaceOnUse">
<stop stop-color="#6425ED"/>
<stop offset="1" stop-color="#6425ED" stop-opacity="0"/>
</linearGradient>
<linearGradient id="paint9_linear_117_269" x1="17.9776" y1="16.6831" x2="17.9776" y2="18.6458" gradientUnits="userSpaceOnUse">
<stop stop-color="#6425ED"/>
<stop offset="1" stop-color="#6425ED" stop-opacity="0"/>
</linearGradient>
<linearGradient id="paint10_linear_117_269" x1="43.2514" y1="4.88599" x2="43.2514" y2="11.0128" gradientUnits="userSpaceOnUse">
<stop stop-color="#6425ED"/>
<stop offset="1" stop-color="#6425ED" stop-opacity="0"/>
</linearGradient>
<linearGradient id="paint11_linear_117_269" x1="47.5879" y1="16.6831" x2="47.5879" y2="18.6458" gradientUnits="userSpaceOnUse">
<stop stop-color="#6425ED"/>
<stop offset="1" stop-color="#6425ED" stop-opacity="0"/>
</linearGradient>
</defs>
</svg>
