<svg width="793" height="737" viewBox="0 0 793 737" fill="none" xmlns="http://www.w3.org/2000/svg">
<g clip-path="url(#clip0_117_36)">
<path opacity="0.08" d="M244.736 597.526C208.428 598.099 172.12 599.055 135.812 600.201C93.1977 601.539 58.9916 606.125 31.4739 640.905C25.3589 648.548 21.537 658.485 23.0657 668.231C25.7411 683.328 40.4554 692.882 54.5965 698.615C79.821 709.126 103.899 711.228 130.843 711.61C278.369 714.476 425.895 714.858 573.229 714.285C613.168 714.094 725.15 727.089 739.1 675.111C754.769 617.591 668.585 605.17 633.233 599.246C593.485 592.557 548.96 597.335 508.639 596.953C420.544 596.379 332.64 596.188 244.736 597.526Z" fill="black"/>
<path d="M167.916 575.932C185.879 584.34 204.797 590.838 222.951 595.615C345.252 627.146 488.765 600.392 593.294 530.261C656.929 487.455 732.985 427.451 740.437 346.236C747.89 267.314 720.563 184.951 665.146 127.814C628.647 89.9772 598.836 37.9993 549.724 15.0678C474.433 -20.4759 399.332 14.6856 327.48 40.2924C276.649 58.4464 225.245 76.7916 181.675 108.513C101.415 166.797 48.2903 274.002 51.5389 372.798C52.6855 410.253 57.0807 448.09 71.4129 482.678C89.758 527.776 124.728 555.867 167.916 575.932Z" fill="#FFBFBF"/>
<path d="M334.933 245.911C333.022 243.236 330.729 240.751 329.009 237.885C326.907 233.681 332.067 233.299 334.742 231.005C336.271 229.859 337.609 228.33 338.755 226.801C339.328 226.037 340.666 222.406 341.239 222.215C333.596 225.081 324.614 223.935 318.117 218.966C325.378 217.055 332.067 212.469 336.462 206.163C332.067 205.972 327.672 204.634 323.659 202.723C322.13 201.959 320.219 201.195 318.881 200.048C317.735 199.284 316.015 196.608 314.677 196.608C320.601 196.608 326.525 194.315 331.111 190.493C326.143 189.156 321.365 186.48 317.544 182.849C314.486 179.792 309.135 173.868 316.779 174.441C320.028 174.632 323.468 174.25 326.716 173.295C319.072 169.473 312.002 164.695 305.505 158.963C309.709 158.771 313.722 157.625 317.544 155.714C308.944 152.465 300.918 147.306 294.421 141C298.625 141 302.829 140.235 306.651 138.898C301.109 135.84 295.95 132.018 291.555 127.432C288.306 123.992 286.013 119.979 283.338 116.157C281.618 113.673 281.618 113.482 280.28 115.966C279.324 117.686 278.751 119.597 277.796 121.317C273.592 128.387 266.712 133.738 258.686 135.84C262.508 138.898 267.859 139.853 272.445 138.706C268.814 143.866 263.464 147.688 257.54 149.79C254.291 150.937 250.851 151.51 248.176 153.421C247.794 153.612 253.909 156.287 254.482 156.287C257.157 156.861 259.26 156.669 261.935 155.905C257.157 163.931 248.749 169.473 239.577 170.81C243.59 173.868 249.131 175.015 254.1 173.868C249.896 182.276 240.341 185.907 231.551 188.965C235.564 192.213 241.105 193.742 246.456 192.786C241.679 200.048 232.315 202.15 223.907 203.87C229.831 207.501 237.284 208.265 243.781 205.972C241.87 210.749 237.666 214.38 233.271 216.864C228.684 219.349 223.716 220.686 218.747 222.215C219.321 222.024 223.525 224.89 224.48 225.273C226.964 226.228 229.449 226.801 231.933 226.801C236.328 227.184 239.768 225.273 243.781 223.935C244.545 223.935 244.354 225.081 243.972 225.655C241.297 229.477 237.284 232.343 234.226 235.974C230.404 240.56 226.391 245.146 222.569 249.733C215.499 258.141 208.237 266.549 200.593 274.384C207.664 282.792 215.499 284.512 218.747 298.08C220.085 304.004 221.232 311.074 222.378 318.145H320.792C319.263 313.941 317.735 309.928 316.397 305.724C325.57 304.004 334.742 302.093 343.915 300.373C347.928 299.609 352.132 298.844 355.954 297.316C357.674 296.742 359.393 296.551 361.113 295.978C361.878 295.787 366.273 291.583 366.464 292.156C355.954 276.104 345.443 261.007 334.933 245.911Z" fill="#3B868A"/>
<path d="M290.79 271.327C299.581 270.371 309.135 269.989 317.735 267.887C306.078 261.581 293.465 256.421 286.204 244.573C291.746 245.911 297.861 243.618 301.3 239.032C285.439 236.356 270.343 228.521 258.877 217.247C266.139 216.291 273.018 213.807 279.324 209.985C269.961 208.074 257.54 204.826 249.896 198.71C256.393 196.608 262.89 194.124 269.196 191.64C270.343 191.258 271.107 189.92 271.298 188.774C271.298 188.965 258.686 185.334 257.54 184.952C255.629 184.187 245.883 180.939 246.265 178.645C249.514 179.219 252.762 178.645 256.011 178.454C259.451 178.263 262.699 177.881 265.948 177.117C267.477 176.735 268.05 175.588 268.05 174.441C263.655 172.913 259.259 171.193 255.055 169.091C252.953 167.944 250.851 166.798 248.94 165.46C248.367 165.078 244.354 162.785 245.692 162.02C245.883 161.829 246.265 161.829 246.647 161.829C251.998 162.02 257.54 161.256 262.699 159.536C262.89 159.536 263.081 159.345 263.272 159.154C260.979 158.198 258.877 157.052 256.775 155.905C252.762 153.612 248.94 151.128 245.309 148.261C243.398 146.733 241.679 145.204 239.959 143.484C239.194 142.72 238.239 141.764 237.666 140.809C237.283 140.426 235.946 139.089 235.946 138.707C235.946 138.324 236.328 138.324 236.71 138.133C237.857 138.133 239.003 138.133 239.959 137.942C240.532 137.751 243.207 136.605 243.207 135.649C243.207 134.885 240.723 133.929 239.959 133.356C237.283 131.636 234.799 129.534 232.506 127.432C227.92 123.037 223.907 118.259 220.276 113.1C216.645 107.94 213.588 102.59 211.294 96.6656C211.103 96.0923 210.912 95.5191 210.721 94.9458C210.53 94.9458 210.339 94.9458 210.148 94.9458C205.371 103.927 198.873 111.953 192.185 119.406C187.025 124.948 181.866 130.107 175.942 134.694C173.267 136.605 170.591 138.707 167.725 140.426C166.005 141.382 164.285 142.146 162.565 142.911C161.61 144.631 162.183 147.306 164.858 147.115C167.151 147.115 169.254 147.115 171.356 147.115C166.578 150.554 161.61 153.612 156.641 156.478C154.539 157.625 154.921 161.065 157.406 161.638C161.419 162.593 165.623 163.549 170.018 163.931C168.489 164.887 166.96 165.651 165.432 166.606C159.699 169.855 153.966 172.913 148.233 175.97C146.322 176.926 146.322 179.983 148.233 180.939C152.628 183.232 157.215 184.569 161.801 185.143C152.055 191.64 140.971 196.226 129.506 198.328C131.226 197.946 136.003 200.621 138.105 201.004C142.118 201.386 145.367 200.239 149.189 199.666C153.393 199.093 161.419 198.137 165.432 199.857C140.971 213.043 107.721 236.165 83.0696 249.733C93.5798 256.421 105.428 257.95 110.205 268.651C112.307 273.238 113.836 279.162 115.747 284.703H262.89C260.597 281.455 258.495 278.015 256.202 274.766C256.775 277.442 286.777 271.709 290.79 271.327Z" fill="#34417D"/>
<path d="M766.808 438.535C755.534 427.451 751.712 417.706 768.146 393.054C784.198 369.167 772.541 329.993 739.673 326.744C727.443 325.598 713.302 319.483 716.55 304.195C718.461 295.214 725.341 288.143 732.029 281.837C738.717 275.531 745.406 268.269 746.934 259.097C749.228 244.573 738.526 238.84 732.602 228.139C726.869 217.629 728.207 205.59 731.074 194.506C734.513 181.703 739.291 167.944 734.704 155.332C729.354 140.235 711.2 129.725 712.728 113.864C713.302 107.558 716.932 101.634 716.741 95.3279C714.639 58.6376 670.687 50.9938 667.057 90.7416C665.91 103.736 669.35 116.539 671.643 129.343C673.936 142.146 674.891 155.905 669.35 167.753C662.47 182.085 647.565 190.302 637.246 202.341C626.735 214.571 621.385 230.814 621.576 246.866C621.767 265.212 629.029 283.557 625.589 301.52C621.958 320.247 607.626 334.961 592.721 346.618C577.815 358.466 561.19 368.785 549.915 384.264C537.685 401.08 534.819 420.572 536.73 440.828C538.258 455.542 556.986 477.901 547.622 490.513C545.902 492.806 543.418 494.717 541.316 496.819C533.29 505.036 530.615 517.266 532.526 528.732C540.743 579.372 612.403 587.971 652.533 598.673C685.02 607.463 725.15 599.246 752.858 580.137C771.203 567.524 786.873 538.287 795.282 518.222C802.925 500.068 804.072 477.327 791.46 462.231C782.287 451.721 773.306 444.841 766.808 438.535Z" fill="#3B868A"/>
<path d="M176.324 567.333C189.318 550.899 200.593 528.923 191.803 510.005C186.452 498.348 174.031 489.557 172.884 476.754C171.929 464.333 181.866 454.014 185.114 442.166C187.981 431.655 185.497 419.808 178.426 411.59C167.916 399.169 164.667 394.774 165.623 378.722C166.578 361.141 166.96 345.854 173.649 329.037C193.905 277.442 189.318 219.731 160.463 172.339C152.246 158.389 140.78 145.204 140.016 129.152C139.443 117.686 144.411 106.411 143.838 95.1368C143.647 90.7416 142.118 85.9643 138.678 83.2889C133.901 79.467 126.83 80.8047 121.289 83.0978C101.606 91.3149 90.7133 110.998 86.5092 131.254C84.2161 141.764 84.025 152.848 81.3497 163.358C76.1901 184.378 59.3737 188.773 46.3792 203.87C29.9451 223.171 25.9321 252.217 36.8245 275.149C40.2642 282.41 45.2327 289.863 44.4683 297.889C43.5128 307.635 34.5313 314.323 28.9896 322.349C21.728 332.859 20.0081 347 24.5944 359.039C33.767 382.926 31.856 385.984 15.4218 403.564C3.19172 416.75 -1.96785 430.127 3.9561 448.472C8.73348 462.995 18.2882 475.416 26.3142 488.411C39.3087 509.813 45.6149 531.98 51.921 555.867C56.5073 573.066 65.4888 591.984 83.4517 598.482C97.7839 603.641 122.244 605.743 137.532 602.304C153.966 598.099 166.578 579.754 176.324 567.333Z" fill="#6DBCBF"/>
<path d="M123.773 566.569C130.079 561.027 136.194 554.912 139.825 547.268C143.456 539.624 144.22 530.261 140.016 522.999C133.519 511.725 117.085 509.431 105.619 515.738C111.925 505.801 116.129 494.526 117.658 482.869C118.613 475.799 117.276 466.626 110.396 464.715C103.708 462.804 97.7841 469.493 93.9622 475.416C97.9752 460.511 92.8156 443.504 81.3499 433.376C78.2923 430.7 74.6615 428.407 70.4575 428.025C64.9157 427.643 59.565 431.273 56.5075 436.051C53.45 440.828 52.4945 446.561 52.1123 452.294C50.0102 478.283 58.4184 503.89 66.8266 528.541C58.6095 518.795 46.3794 512.298 33.5761 510.96C30.5185 510.578 27.0788 510.769 24.7857 512.68C20.5816 516.12 22.3014 522.808 24.9768 527.585C29.7542 536.567 36.4425 544.593 44.4685 550.899C33.5761 544.02 19.435 542.491 7.20492 547.077C5.10287 547.842 3.00082 548.797 1.66315 550.708C-1.58547 554.912 0.325486 561.218 3.9563 565.04C7.9693 569.435 13.32 572.111 18.6706 574.595C33.0028 581.665 60.5205 600.966 74.2794 598.482C91.0957 595.042 111.352 577.461 123.773 566.569Z" fill="#3B868A"/>
<path d="M724.576 586.251C730.118 581.474 735.278 576.123 738.335 569.626C741.393 563.129 742.157 554.912 738.335 548.605C732.793 538.86 718.461 536.949 708.715 542.299C714.257 533.7 717.697 523.954 719.035 513.826C719.799 507.711 718.652 499.876 712.728 498.156C706.804 496.436 701.836 502.36 698.587 507.329C702.027 494.525 697.632 479.811 687.695 471.021C685.02 468.728 681.771 466.626 678.331 466.434C673.554 466.052 668.968 469.301 666.292 473.505C663.808 477.709 662.853 482.678 662.47 487.455C660.751 509.813 668.012 531.98 675.274 553.192C668.012 544.783 657.502 539.051 646.609 537.904C643.934 537.713 641.068 537.713 638.966 539.433C635.335 542.49 636.864 548.223 639.157 552.236C643.361 560.071 649.094 566.951 655.973 572.301C646.609 566.377 634.379 565.04 623.869 569.053C622.149 569.817 620.238 570.581 619.092 572.11C616.225 575.741 617.945 581.092 621.003 584.531C624.442 588.353 629.029 590.646 633.615 592.748C645.845 598.863 669.732 615.489 681.771 613.387C696.294 610.711 713.875 595.615 724.576 586.251Z" fill="#6DBCBF"/>
<path d="M134.857 513.827C141.163 512.107 146.896 509.623 152.246 505.801C155.304 503.699 158.17 508.667 155.113 510.769C149.38 514.591 143.074 517.457 136.194 519.368C132.755 520.324 131.226 514.782 134.857 513.827Z" fill="#2F8E91"/>
<path d="M138.105 439.681C142.691 437.77 147.469 435.668 152.055 433.757C155.495 432.42 156.832 437.77 153.584 439.299C148.997 441.21 144.22 443.312 139.634 445.223C136.385 446.561 134.856 441.21 138.105 439.681Z" fill="#2F8E91"/>
<path d="M136.003 318.909C141.736 316.425 146.131 312.221 148.806 306.488C150.335 303.239 155.304 306.106 153.775 309.354C150.717 315.851 145.367 321.011 138.869 323.686C135.43 325.406 132.563 320.438 136.003 318.909Z" fill="#2F8E91"/>
<path d="M664.764 624.471H104.09C91.86 624.471 81.9231 614.534 81.9231 602.304V226.228C81.9231 213.998 91.86 204.061 104.09 204.061H664.764C676.994 204.061 686.931 213.998 686.931 226.228V602.304C686.931 614.534 676.994 624.471 664.764 624.471Z" fill="#19034D"/>
<path d="M677.376 229.859H89.1846V602.686H677.376V229.859Z" fill="#E6EBF4"/>
<path d="M248.94 380.251H99.6948V498.921H248.94V380.251Z" fill="#ACB9E8"/>
<path d="M519.913 380.251H419.971V529.496H519.913V380.251Z" fill="#ACB9E8"/>
<path d="M406.594 244.955H261.362V365.345H406.594V244.955Z" fill="#ACB9E8"/>
<path d="M411.562 384.073H262.317V393.627H411.562V384.073Z" fill="#ACB9E8"/>
<path d="M411.562 428.407H262.317V437.962H411.562V428.407Z" fill="#ACB9E8"/>
<path d="M411.562 460.51H262.317V470.065H411.562V460.51Z" fill="#ACB9E8"/>
<path d="M669.159 380.251H531.952V391.143H669.159V380.251Z" fill="#ACB9E8"/>
<path d="M669.159 407.195H531.952V418.088H669.159V407.195Z" fill="#ACB9E8"/>
<path d="M669.159 433.948H531.952V444.841H669.159V433.948Z" fill="#ACB9E8"/>
<path d="M669.159 460.893H531.952V471.786H669.159V460.893Z" fill="#ACB9E8"/>
<path d="M669.159 487.838H531.952V498.731H669.159V487.838Z" fill="#ACB9E8"/>
<path d="M669.159 514.591H531.952V525.484H669.159V514.591Z" fill="#ACB9E8"/>
<path d="M668.394 246.484H415.384V257.376H668.394V246.484Z" fill="#ACB9E8"/>
<path d="M668.394 273.811H415.384V284.704H668.394V273.811Z" fill="#ACB9E8"/>
<path d="M668.394 301.137H415.384V312.03H668.394V301.137Z" fill="#ACB9E8"/>
<path d="M668.394 328.464H415.384V339.356H668.394V328.464Z" fill="#ACB9E8"/>
<path d="M668.394 355.791H415.384V366.683H668.394V355.791Z" fill="#ACB9E8"/>
<path d="M251.807 246.484H100.077V257.376H251.807V246.484Z" fill="#ACB9E8"/>
<path d="M251.807 273.811H100.077V284.704H251.807V273.811Z" fill="#ACB9E8"/>
<path d="M251.807 301.137H100.077V312.03H251.807V301.137Z" fill="#ACB9E8"/>
<path d="M251.807 328.464H100.077V339.356H251.807V328.464Z" fill="#ACB9E8"/>
<path d="M251.807 355.791H100.077V366.683H251.807V355.791Z" fill="#ACB9E8"/>
<path d="M248.94 505.609H99.6948V515.164H248.94V505.609Z" fill="#ACB9E8"/>
<path d="M248.94 532.363H99.6948V541.918H248.94V532.363Z" fill="#ACB9E8"/>
<path d="M248.94 559.116H99.6948V568.671H248.94V559.116Z" fill="#ACB9E8"/>
<path d="M248.94 585.869H99.6948V595.424H248.94V585.869Z" fill="#ACB9E8"/>
<path d="M411.562 478.473H262.317V485.544H411.562V478.473Z" fill="#ACB9E8"/>
<path d="M411.562 502.36H262.317V509.431H411.562V502.36Z" fill="#ACB9E8"/>
<path d="M411.562 526.057H262.317V533.127H411.562V526.057Z" fill="#ACB9E8"/>
<path d="M669.159 542.109H531.952V551.663H669.159V542.109Z" fill="#ACB9E8"/>
<path d="M669.159 569.053H531.952V578.608H669.159V569.053Z" fill="#ACB9E8"/>
<path d="M411.562 550.708H262.317V557.778H411.562V550.708Z" fill="#ACB9E8"/>
<path d="M411.562 574.403H262.317V581.474H411.562V574.403Z" fill="#ACB9E8"/>
<path d="M519.34 550.708H422.837V557.778H519.34V550.708Z" fill="#ACB9E8"/>
<path d="M519.34 574.403H422.837V581.474H519.34V574.403Z" fill="#ACB9E8"/>
<path d="M620.812 591.602C618.901 587.781 612.786 585.487 608.964 584.15C595.205 579.372 580.682 577.461 566.35 575.933C560.235 575.168 554.119 574.595 547.813 574.213C542.463 574.022 536.73 573.448 531.379 573.639C529.086 573.639 526.602 573.831 524.309 573.831C522.589 573.831 520.869 574.022 519.149 574.404C516.665 574.977 514.563 575.168 512.652 577.27C508.257 582.048 505.581 588.163 504.435 594.66C504.244 595.424 504.052 596.189 504.052 596.953C504.052 609.183 504.052 621.413 505.008 633.643C505.963 645.3 507.11 656.766 508.448 668.232C513.416 668.423 518.385 668.423 523.353 668.614C525.073 668.614 526.602 668.614 528.322 668.614C534.246 650.078 535.201 630.204 535.774 610.521C552.782 614.534 570.936 617.591 588.517 619.12C601.511 620.267 617.372 619.311 621.194 604.215C621.767 602.304 621.958 600.393 621.958 598.291C621.958 595.998 621.767 593.513 620.812 591.602Z" fill="#0C7B7D"/>
<path d="M525.455 479.43C523.353 482.105 522.398 485.927 522.971 489.367C523.353 491.086 523.926 492.806 524.882 494.335C526.602 497.775 529.468 501.214 533.481 501.406C535.583 501.597 537.685 500.641 539.787 501.023C541.889 501.406 543.418 502.934 544.947 504.272C548.195 507.521 551.062 510.96 553.546 514.591C557.75 513.062 562.145 511.343 564.821 507.903C558.132 497.966 550.68 488.411 542.654 479.621C537.685 474.079 530.615 472.932 525.455 479.43Z" fill="#FF735F"/>
<path d="M560.234 509.814C557.941 506.947 553.737 505.419 550.297 506.565C544.182 508.285 541.316 518.031 539.214 523.19C536.73 529.114 534.245 535.229 530.424 540.389C522.398 551.09 509.212 557.588 496.026 557.779C497.364 563.32 497.937 568.862 498.319 574.404C500.995 573.831 504.817 574.786 507.301 575.168C522.206 577.461 536.921 568.862 546.667 557.97C552.399 551.281 561.19 538.478 563.674 526.63C564.438 520.324 563.865 514.4 560.234 509.814Z" fill="#D4A100"/>
<path d="M560.808 554.148C567.114 564.467 574.949 574.213 582.975 583.003C584.312 580.901 585.65 581.092 587.943 580.71C591.001 580.137 594.058 578.99 597.116 578.035C606.67 574.977 625.398 569.053 626.353 568.48C626.927 568.289 604.377 538.287 602.084 535.612C596.734 529.306 591.192 522.999 585.077 517.267C582.019 514.4 578.771 511.534 575.522 508.667C572.464 506.183 569.98 503.699 566.349 501.979C565.585 501.597 564.821 501.215 564.056 501.215C563.292 501.023 562.336 501.215 561.572 501.215C560.043 501.406 558.706 501.597 557.177 501.979C553.355 503.317 550.297 506.565 548.578 510.387C547.049 514.209 546.858 518.413 547.24 522.617C547.813 527.968 550.106 533.319 552.399 538.287C554.884 544.02 557.75 549.18 560.808 554.148Z" fill="#F5BA00"/>
<path d="M581.828 587.78C581.828 587.589 581.828 587.207 581.637 587.207C581.446 587.207 581.064 587.398 581.064 587.589C581.255 587.589 581.637 588.162 581.828 588.162C581.637 588.162 581.637 587.971 581.828 587.78C581.637 587.971 581.828 587.971 581.828 587.78Z" fill="url(#paint0_linear_117_36)"/>
<path d="M661.706 668.805C643.361 662.881 625.398 656.384 606.862 651.415C608.008 651.606 615.843 635.936 616.608 634.216C623.487 620.84 631.322 606.89 631.704 591.22C631.895 586.825 630.94 582.43 629.793 578.034C628.264 572.493 625.78 567.142 622.914 562.174C621.767 560.072 620.429 558.161 619.092 556.25C606.288 565.422 591.192 570.582 576.669 576.697C576.86 577.079 577.242 577.652 577.433 578.034C578.771 580.519 580.491 583.385 581.064 586.061C582.019 589.882 581.446 594.469 580.873 598.291C579.917 604.788 578.006 610.903 576.286 617.4C573.611 627.146 571.7 636.127 569.789 646.447C568.069 655.046 563.865 668.614 571.509 675.302C579.917 682.564 590.81 682.373 600.364 683.519C614.506 685.239 626.162 686.577 639.921 689.252C644.89 690.207 650.814 690.781 656.355 691.545C658.266 684.092 659.986 676.449 661.706 668.805Z" fill="#0C7B7D"/>
<path d="M525.264 605.552L402.963 501.596" stroke="#19034D" stroke-width="5" stroke-miterlimit="10"/>
<path d="M496.6 560.645C496.026 560.645 495.262 560.836 494.689 561.027C493.542 561.218 492.396 561.41 491.249 561.41C490.676 561.41 489.911 561.41 489.338 561.218C486.089 560.072 483.987 559.499 481.694 562.556C480.165 564.467 479.21 567.334 479.783 569.627C480.165 571.347 481.121 572.684 482.459 573.831C484.752 575.551 488.383 575.36 491.249 574.595C492.013 574.404 492.778 574.213 493.351 573.831C495.071 573.066 496.6 572.111 497.555 570.582C498.128 569.627 498.32 568.671 498.893 567.907C497.937 565.423 497.173 563.129 496.6 560.645Z" fill="#DB6352"/>
<path d="M502.333 572.11C501.951 569.817 498.702 567.524 496.027 567.524C493.542 567.333 490.867 568.097 488.383 568.289C485.899 568.48 483.032 568.097 481.312 566.186C479.592 564.276 479.592 561.6 478.637 559.307C477.873 557.205 476.344 555.485 474.624 554.339C474.051 554.721 473.86 555.485 474.051 556.25C474.242 557.014 474.624 557.587 474.815 558.161C476.917 562.365 475.197 567.333 470.229 563.702C467.171 561.409 463.731 559.307 460.292 557.587C459.91 557.396 459.336 557.205 458.954 557.396C458.572 557.587 458.381 558.161 458.572 558.734C458.763 560.263 459.718 561.409 460.101 562.747C460.674 564.276 460.674 565.804 461.056 567.333C461.821 570.964 464.114 573.639 467.553 574.786C471.757 576.123 475.962 576.888 480.357 576.888C487.427 577.079 494.307 579.754 500.804 575.55C501.951 574.213 502.524 573.257 502.333 572.11Z" fill="#FF735F"/>
<path d="M570.363 520.515C569.789 518.413 568.643 516.502 567.496 514.782C565.776 512.298 563.483 510.005 560.617 509.049C557.75 507.903 554.311 508.285 552.017 510.387C550.106 511.916 549.724 514.4 549.151 516.502C546.667 524.719 543.8 532.745 539.978 540.389C538.45 543.447 537.494 545.931 535.01 548.224C532.144 551.09 528.704 553.384 524.882 555.295C522.207 556.632 519.722 557.779 516.665 558.734C507.301 561.601 497.746 562.747 488.192 563.512C488.192 568.862 488.192 574.404 488 579.755C504.052 579.946 519.149 582.621 534.054 575.551C546.285 569.818 555.648 561.218 563.674 550.135C569.789 541.153 572.847 531.025 570.363 520.515Z" fill="#F5BA00"/>
<path d="M598.071 496.246C597.116 492.042 593.867 488.602 589.663 487.647C588.899 487.456 588.134 487.456 587.37 487.456C583.739 487.456 580.108 488.984 576.477 489.749C574.567 490.131 572.464 490.322 571.127 488.984C569.98 487.838 569.98 485.927 568.834 484.589C567.496 483.252 565.394 483.443 563.483 484.016C562.145 484.398 560.617 484.971 559.47 485.736C558.323 486.309 556.03 487.265 554.884 486.118C553.928 485.163 554.119 483.634 554.502 482.296C555.075 479.812 554.31 477.328 552.017 475.99C550.68 475.226 549.342 475.226 548.004 474.652C546.475 473.888 545.329 472.741 544.182 471.595C542.462 469.875 540.36 467.964 537.876 467.773C534.819 467.773 532.526 470.257 530.232 472.168C527.748 474.461 524.691 476.181 521.442 477.519C519.531 478.283 517.047 479.048 516.474 481.15C516.091 482.105 516.474 483.252 517.047 484.016C517.811 484.78 518.958 485.163 519.913 484.589C521.251 484.016 522.206 482.487 523.926 483.252C525.073 483.825 525.455 485.736 526.219 486.691C527.366 488.22 528.895 489.749 530.232 491.087C534.245 494.717 540.169 496.055 545.329 494.144C546.667 493.571 548.004 492.997 549.342 492.615C551.444 492.042 552.973 492.233 554.119 494.144C555.075 496.055 555.457 498.157 556.03 500.068C556.604 502.743 557.559 505.228 558.706 507.712C559.279 509.241 560.043 510.578 561.19 511.725C562.145 512.68 563.292 513.445 564.438 514.209C569.216 516.884 575.14 517.84 580.682 516.884C586.032 515.929 592.147 512.871 595.396 508.094C598.071 504.845 599.218 500.45 598.071 496.246Z" fill="#19034D"/>
<path d="M565.585 473.314H553.928C553.928 472.932 553.928 472.359 553.737 471.786C551.635 467.582 545.902 462.995 540.934 462.613C535.01 462.231 527.748 466.053 525.073 471.403C524.691 472.168 524.309 472.741 524.5 473.506H511.314C510.55 473.506 509.976 474.27 509.976 475.225C509.976 476.181 510.55 476.945 511.314 476.945L565.394 476.563C566.158 476.563 566.732 475.799 566.732 474.843C566.923 473.888 566.35 473.314 565.585 473.314Z" fill="#E01919"/>
<path d="M551.635 613.196C554.501 613.961 557.177 614.725 560.043 615.298C565.394 616.636 570.745 616.445 576.095 617.209C576.095 617.209 576.286 617.209 576.286 617.018C576.286 617.209 579.726 601.54 581.828 593.896C572.656 601.54 562.527 608.037 551.635 613.196Z" fill="url(#paint1_linear_117_36)"/>
<path d="M576.477 542.109C575.713 539.051 574.566 536.185 573.038 533.318C572.656 532.554 571.891 531.599 571.127 530.643C569.789 537.714 566.732 544.211 562.527 549.944C561.763 551.472 560.999 553.192 560.043 554.53C560.425 555.103 560.808 555.485 561.19 556.059C562.528 557.97 564.056 559.881 566.158 560.454C568.643 561.218 571.509 560.263 573.611 558.352C578.962 553.574 578.197 548.415 576.477 542.109Z" fill="url(#paint2_linear_117_36)"/>
<path d="M545.329 495.099C546.284 499.112 547.049 503.125 547.813 507.138C546.858 506.183 546.093 505.227 545.138 504.272C544.564 503.698 543.991 503.125 543.418 502.743C543.036 502.552 542.462 502.361 542.08 501.978C541.125 501.214 540.552 501.023 539.214 500.832C539.596 499.876 541.316 499.112 542.08 498.539C543.227 497.201 544.182 496.246 545.329 495.099Z" fill="url(#paint3_linear_117_36)"/>
<path d="M428.188 405.667H305.887V521.471H428.188V405.667Z" fill="#E6EBF4"/>
<path d="M444.431 495.099H283.146V511.533H444.431V495.099Z" fill="#ACB9E8"/>
<path d="M444.431 464.141H283.146V480.575H444.431V464.141Z" fill="#ACB9E8"/>
<path d="M444.431 435.095H283.146V451.529H444.431V435.095Z" fill="#ACB9E8"/>
<path d="M444.431 404.137H283.146V420.572H444.431V404.137Z" fill="#ACB9E8"/>
<path d="M364.171 517.457C394.566 517.457 419.206 492.817 419.206 462.422C419.206 432.027 394.566 407.386 364.171 407.386C333.776 407.386 309.135 432.027 309.135 462.422C309.135 492.817 333.776 517.457 364.171 517.457Z" stroke="#19034D" stroke-width="5" stroke-miterlimit="10"/>
<path d="M364.935 503.698C355.571 503.698 346.399 500.641 338.564 494.526C328.054 486.691 321.939 474.843 321.557 462.422C321.174 453.44 323.85 444.459 328.818 437.006C330.156 435.095 332.831 434.713 334.551 436.051L334.742 436.242C336.271 437.579 336.653 439.872 335.506 441.592C331.493 447.707 329.391 454.969 329.583 462.039C329.965 471.976 334.933 481.531 343.532 488.028C351.176 493.761 360.349 496.437 369.33 495.29C371.432 495.099 373.343 496.246 373.726 498.157V498.539C374.299 500.832 372.77 503.125 370.286 503.316C368.566 503.698 366.655 503.698 364.935 503.698Z" fill="white"/>
<path d="M196.198 360.759C194.86 360.186 193.14 360.377 191.994 359.421C191.421 358.848 190.847 358.275 190.465 357.51C189.319 355.217 188.363 352.733 187.79 350.249C187.025 347.191 187.025 343.752 188.936 341.267C194.478 345.28 195.816 353.306 200.975 358.084C201.74 358.848 202.504 359.421 203.077 360.377C205.753 365.727 197.345 361.332 196.198 360.759Z" fill="#FF735F"/>
<path d="M196.962 368.594C197.727 367.256 198.491 365.919 198.873 364.963C199.255 364.199 199.447 363.626 199.447 362.861C199.255 360.568 196.007 357.893 195.051 355.6C193.714 352.542 193.14 349.102 193.14 345.663C193.14 345.28 193.14 344.898 193.523 344.707C193.905 344.516 194.478 344.898 194.86 345.28C198.109 348.529 200.02 352.542 202.313 356.364C204.224 359.613 209.383 363.626 209.001 367.639C208.81 369.358 207.855 370.887 207.09 372.225C205.944 374.327 204.606 376.429 203.46 378.722C202.886 379.869 202.122 381.015 200.784 381.206C198.682 381.589 196.58 378.722 195.625 377.193C194.478 373.945 195.625 371.269 196.962 368.594Z" fill="#FF735F"/>
<path d="M196.962 367.065C200.975 369.549 204.988 371.843 209.192 374.327C196.58 391.716 191.23 414.075 194.669 435.286C195.625 441.21 197.345 447.134 197.536 453.249C197.918 460.129 195.051 473.505 187.025 475.416C184.159 476.181 180.91 475.225 178.808 473.123C176.897 471.212 176.133 468.537 175.369 466.052C169.636 445.796 170.209 424.012 176.515 403.947C177.28 401.08 193.905 365.154 196.962 367.065Z" fill="#0C7B7D"/>
<path d="M287.924 275.722H183.586V374.327H287.924V275.722Z" fill="#E6EBF4"/>
<path d="M301.874 351.969H164.285V366.11H301.874V351.969Z" fill="#ACB9E8"/>
<path d="M301.874 325.597H164.285V339.738H301.874V325.597Z" fill="#ACB9E8"/>
<path d="M301.874 300.946H164.285V315.087H301.874V300.946Z" fill="#ACB9E8"/>
<path d="M301.874 274.384H164.285V288.525H301.874V274.384Z" fill="#ACB9E8"/>
<path d="M236.901 371.843C208.619 371.843 185.497 348.72 185.497 320.438C185.497 292.156 215.69 258.332 244.163 258.332C272.636 258.332 295.567 281.455 295.567 309.737C295.567 338.019 265.374 371.843 236.901 371.843ZM236.901 278.015C213.588 278.015 189.127 304.195 189.127 327.7C189.127 351.013 208.237 370.123 231.551 370.123C254.864 370.123 279.324 343.943 279.324 320.438C279.324 297.124 260.406 278.015 236.901 278.015Z" fill="#34417D"/>
<path d="M233.27 375.474C204.988 375.474 181.866 352.351 181.866 324.069C181.866 295.787 204.988 272.665 233.27 272.665C261.553 272.665 284.675 295.787 284.675 324.069C284.675 352.351 261.744 375.474 233.27 375.474ZM233.27 281.646C209.957 281.646 190.847 300.756 190.847 324.069C190.847 347.383 209.957 366.492 233.27 366.492C256.584 366.492 275.694 347.383 275.694 324.069C275.694 300.756 256.775 281.646 233.27 281.646Z" fill="#19034D"/>
<path d="M234.035 359.23C226.009 359.23 218.174 356.555 211.486 351.395C202.695 344.707 197.345 334.579 196.962 324.069C196.771 316.425 198.873 308.781 203.269 302.475C204.415 300.755 206.708 300.373 208.237 301.71L208.428 301.902C209.766 303.048 209.957 304.959 209.001 306.488C205.562 311.647 203.842 317.762 204.033 324.069C204.415 332.668 208.619 340.694 215.881 346.236C222.378 351.204 230.213 353.306 237.857 352.351C239.577 352.16 241.296 353.115 241.679 354.835V355.026C242.061 356.937 240.723 358.848 238.812 359.23C237.092 359.23 235.564 359.23 234.035 359.23Z" fill="white"/>
<path d="M95.4908 665.747C95.2997 665.938 95.2997 666.13 95.1086 666.321C93.5799 670.334 98.1662 674.155 100.268 677.213C103.708 682.181 106.957 686.959 110.396 691.927C111.543 693.647 112.689 695.176 114.218 696.323C118.231 699.189 125.302 698.616 124.155 692.118C123.582 689.634 122.053 687.532 120.524 685.43C117.467 681.226 114.791 676.258 114.218 670.907C113.645 665.365 116.702 661.161 119.378 656.766C121.48 653.135 123.009 649.122 123.773 645.109C123.964 643.962 124.155 642.625 123.773 641.478C123.391 640.332 122.626 639.185 121.48 638.803C120.906 638.612 120.142 638.612 119.378 638.803C114.791 639.567 110.778 643.962 108.676 647.784C105.81 652.753 102.37 657.339 98.5483 661.543C97.5929 663.072 96.2552 664.219 95.4908 665.747Z" fill="#19034D"/>
<path d="M190.274 689.061C190.083 690.781 189.892 693.074 191.23 694.221C192.185 695.176 193.714 695.176 195.051 695.176C202.122 695.367 209.384 695.749 216.454 696.323C220.085 696.705 222.378 696.514 225.627 695.176C227.155 694.603 228.875 693.456 229.257 691.927C229.64 690.208 228.302 688.297 226.773 687.341C225.244 686.386 223.334 686.195 221.423 686.003C217.601 685.43 212.059 685.239 209.575 681.799C207.282 678.742 207.473 674.538 207.473 671.098C207.473 668.614 207.664 666.13 207.664 663.454C207.473 660.97 206.899 658.295 205.179 656.384C203.46 654.473 200.784 653.326 198.491 654.091C196.58 654.664 195.243 656.384 194.287 658.104C193.523 660.015 193.332 661.925 192.949 663.836C192.185 672.436 190.656 680.844 190.274 689.061Z" fill="#19034D"/>
<path d="M266.712 362.67C265.184 364.199 263.464 365.728 261.553 367.257C258.495 369.741 256.202 368.594 252.571 367.83C251.998 367.639 251.425 367.639 250.851 367.639C250.278 367.83 249.705 368.212 249.514 368.785C249.323 369.741 253.145 372.416 253.909 373.372C255.247 375.091 256.393 377.385 256.393 379.678C256.584 382.544 255.82 385.793 255.82 388.85C255.82 390.57 255.629 392.29 255.629 394.01C255.629 397.067 255.82 400.889 258.113 403.374C261.553 407.004 264.992 402.8 265.375 399.361C265.566 397.45 265.375 395.73 265.184 393.819C264.61 386.366 265.566 379.678 268.623 372.798C271.108 367.83 274.547 364.008 275.121 358.084C275.121 357.511 275.12 356.746 274.929 356.173C274.356 355.026 272.636 355.026 271.681 355.791C269.961 357.32 268.623 360.759 266.712 362.67Z" fill="#FF735F"/>
<path d="M202.695 425.923C201.549 419.999 199.829 413.502 202.313 407.96C204.415 403.374 209.575 400.125 214.543 400.316C219.512 400.507 224.48 403.756 226.582 408.533C228.111 411.973 228.302 416.559 226.582 419.999C224.862 423.63 221.614 425.35 220.658 429.554C219.894 432.611 219.894 435.669 219.703 438.726C219.512 441.21 219.13 443.695 217.601 445.415C215.69 447.899 212.059 448.663 209.001 448.09C206.708 447.708 201.74 445.606 200.593 443.312C199.447 441.21 201.931 439.108 202.695 437.197C203.842 433.758 203.46 429.554 202.695 425.923Z" fill="#FF977D"/>
<path d="M268.05 384.646H253.335C253.335 385.984 253.527 387.322 253.527 388.659C253.718 393.628 253.909 398.596 253.909 403.565C254.1 411.017 253.909 417.324 250.087 423.63C245.501 431.273 236.901 440.828 227.538 442.166C224.098 442.548 220.658 441.784 217.41 441.21C209.384 439.682 194.096 437.58 187.408 443.695C184.35 446.561 183.586 450.956 182.821 454.969C180.719 465.862 177.28 476.372 172.502 486.118C170.4 490.322 168.107 494.717 167.725 499.494C167.151 505.418 170.018 511.151 174.222 515.164C178.999 519.751 184.159 518.222 190.083 519.559C196.771 521.088 204.606 524.337 211.294 524.91C218.365 525.292 217.792 516.311 218.556 511.151C220.085 502.17 221.614 492.997 224.671 484.398C227.729 475.799 232.697 467.582 239.959 461.849C246.265 456.88 254.291 454.014 260.024 448.281C261.744 446.561 263.272 444.841 264.61 442.739C267.859 437.771 269.77 432.038 270.534 426.305C270.916 423.821 270.725 421.337 270.534 418.852C269.77 407.769 268.241 396.112 268.05 384.646Z" fill="#0C7B7D"/>
<path d="M139.252 583.385C137.914 587.398 136.385 591.602 134.665 595.615C125.875 616.253 112.689 633.834 101.224 653.135C102.179 653.899 121.098 666.32 120.333 667.658C146.131 640.523 168.298 597.908 183.012 555.294C187.79 541.344 193.523 527.776 197.727 513.635C198.109 512.68 198.3 511.533 198.109 510.578C197.918 509.049 196.58 507.902 195.434 506.756C188.172 500.641 179.955 495.863 171.164 492.615C171.164 491.277 171.356 490.131 171.929 488.984C171.356 488.411 170.4 489.175 170.018 489.748C162.565 501.596 160.081 517.457 156.641 531.025C155.304 536.567 154.348 542.3 152.246 547.65C149.953 553.383 147.851 559.116 145.749 564.849C143.265 570.964 141.354 577.27 139.252 583.385Z" fill="#F5BA00"/>
<path d="M224.671 410.635C225.053 407.004 226.391 403.565 226.2 399.552C226.2 398.787 226.009 397.832 225.818 397.067C223.907 391.908 219.321 395.156 215.499 394.01C214.161 393.628 213.014 392.863 211.677 392.481C209.575 391.717 206.708 391.908 204.797 393.054C202.504 394.392 202.695 397.449 200.593 399.169C197.918 401.271 195.625 401.845 194.478 405.475C193.905 407.386 194.669 412.355 193.332 413.693C192.185 415.03 187.981 414.457 186.07 414.839C180.91 416.368 176.324 419.999 174.604 425.158C174.604 425.158 167.534 425.732 166.769 425.923C163.903 426.687 161.036 427.834 158.552 429.553C153.393 432.802 149.38 437.771 148.042 443.886C147.087 448.472 147.278 453.44 148.233 458.218C148.806 460.511 149.38 462.995 150.526 465.097C154.157 472.741 161.801 477.901 170.018 479.62C178.235 481.34 186.834 480.003 194.669 477.327C204.797 473.696 214.543 467.39 219.894 458.027C223.907 451.147 225.053 442.357 222.569 434.713C221.996 432.802 220.849 431.273 220.085 429.553C219.321 427.069 219.512 427.451 221.04 425.349C223.334 422.292 224.671 419.043 224.289 415.03C224.48 413.31 224.48 411.973 224.671 410.635Z" fill="#19034D"/>
<path d="M186.452 597.717C187.408 610.902 187.79 624.279 187.981 637.464C188.172 650.268 187.025 663.836 188.363 676.639C188.363 677.021 210.912 676.639 211.868 675.684C212.823 674.537 212.25 669.186 212.25 667.849C212.441 661.734 212.632 655.427 212.823 649.312C213.014 642.051 213.397 634.598 213.97 627.336C214.352 620.266 216.836 614.915 218.365 608.036C221.614 593.895 221.231 578.989 220.085 564.657C218.747 546.121 217.792 528.54 220.276 510.195C217.792 509.622 214.543 507.138 211.868 505.8C206.326 503.316 200.975 500.831 195.434 498.347C191.038 496.245 186.643 494.143 182.057 492.232C179.19 490.894 173.267 486.881 170.4 489.366C169.062 490.512 168.489 492.041 167.916 493.761C165.432 501.214 164.476 509.431 166.578 517.074C168.871 525.865 174.795 532.935 177.853 541.535C181.293 551.28 180.528 562.173 182.63 572.301C184.159 580.518 185.879 589.117 186.452 597.717Z" fill="#F5BA00"/>
<path d="M205.18 391.334C207.282 387.512 210.53 384.264 214.543 382.926C217.219 381.971 220.658 382.353 222.569 384.646C224.289 386.748 223.907 389.806 223.143 392.29C221.996 396.494 220.085 400.507 217.41 404.138C216.836 405.093 216.072 406.049 214.925 406.431C213.97 407.004 213.015 407.004 211.868 407.004C209.384 407.004 202.313 406.049 201.167 403.182C200.593 401.845 202.122 398.787 202.504 397.449C203.269 395.538 204.033 393.436 205.18 391.334Z" fill="#E01919"/>
<path d="M220.849 394.965C219.512 389.997 213.588 388.277 209.193 388.468C204.224 388.659 199.447 391.334 196.963 395.539C192.376 403.373 196.58 419.999 207.855 417.897C211.486 417.323 214.352 414.648 216.263 411.591C217.983 408.915 218.938 405.858 219.894 402.8C220.085 402.418 220.085 402.036 220.276 401.463C220.658 399.36 221.423 397.067 220.849 394.965ZM209.575 414.266C206.708 415.986 203.651 415.795 200.784 414.266C199.447 413.502 200.593 411.591 201.931 412.164C204.033 413.31 206.135 413.501 208.428 412.164C209.766 411.399 210.912 413.502 209.575 414.266Z" fill="#E01919"/>
<path d="M174.986 537.522C174.222 537.14 173.267 537.14 171.929 537.331C170.209 545.548 168.489 553.574 166.387 561.6C165.432 565.422 164.667 570.008 162.947 573.639C161.992 575.932 160.845 578.416 164.094 579.945C166.196 580.9 168.489 580.327 170.4 579.181C174.795 576.505 176.897 571.537 178.426 566.95C179.382 563.893 180.528 561.026 180.337 557.778C180.146 555.485 179.764 553.383 179.382 551.09C178.999 547.841 178.235 544.592 177.28 541.535C176.706 539.433 176.133 538.095 174.986 537.522Z" fill="url(#paint4_linear_117_36)"/>
<path d="M557.177 293.303C557.75 295.022 558.132 297.124 556.795 298.08C556.221 298.462 555.648 298.462 555.075 298.653C553.928 298.844 552.591 299.035 551.444 299.227C550.68 299.418 549.724 299.418 548.96 299.418C548.195 299.227 547.622 299.035 547.049 298.844C543.609 298.08 540.169 299.8 536.73 300.755C531.952 301.902 525.264 301.329 521.06 298.653C516.474 295.787 519.531 290.627 524.117 290.054C528.322 289.481 532.717 290.436 536.539 288.716C537.685 288.334 538.641 287.57 539.023 286.423C539.596 285.085 538.832 283.748 538.259 282.41C537.303 280.499 536.539 278.588 535.583 276.677C535.201 275.722 534.437 274.957 533.672 274.193C536.73 274.384 540.169 273.429 543.227 272.855C545.902 272.282 548.196 270.944 549.724 273.62C552.973 279.544 554.884 286.996 557.177 293.303Z" fill="#19034D"/>
<path d="M532.908 75.4539C535.01 82.7156 536.73 89.7861 542.272 95.1368C546.667 99.3408 550.871 101.825 556.795 104.118C568.069 108.322 576.287 105.838 583.739 96.0922C585.077 94.3724 586.032 92.2703 588.326 91.1238C590.81 89.9772 594.058 90.1683 596.543 92.0792C599.027 93.9902 600.365 96.6655 600.938 99.5319C601.129 100.487 601.32 101.634 601.129 102.589C600.365 106.602 597.88 109.087 595.014 111.953C592.147 114.628 589.09 117.686 585.459 119.406C578.198 122.846 570.936 125.521 562.719 124.183C548.004 121.89 534.819 114.437 526.793 101.634C523.353 96.0922 522.971 89.4039 521.633 83.2888C520.869 79.658 520.869 75.8361 520.296 72.3964C524.691 73.543 528.704 74.6896 532.908 75.4539Z" fill="#BF0033"/>
<path d="M605.524 185.334C593.485 184.378 584.503 180.365 573.802 174.823C573.611 174.632 569.789 173.103 569.789 172.912C569.789 172.339 572.082 173.677 572.082 173.103C571.891 165.077 569.216 154.949 568.834 146.923C568.26 136.986 567.687 127.049 568.642 117.304C569.025 112.717 569.598 109.278 572.273 105.456C574.566 102.207 577.433 99.5318 580.681 97.2386C586.797 93.0345 593.867 89.0215 601.32 91.6969C608.008 93.99 613.168 99.3407 616.225 105.647C620.047 113.1 621.194 121.508 622.34 129.725C623.487 137.751 624.633 145.777 625.78 153.994C626.162 157.243 626.162 160.491 626.544 163.74C627.118 167.562 628.646 171.957 628.646 175.97C628.837 177.308 628.646 183.04 628.455 185.907C620.238 184.951 613.741 185.907 605.524 185.334Z" fill="#E01919"/>
<path d="M510.55 187.436C514.754 183.996 521.251 181.703 525.837 179.983C536.348 175.97 547.813 173.868 559.088 172.721C579.153 170.81 598.454 173.104 618.136 176.161C619.092 176.352 620.047 176.543 620.812 176.925C622.532 177.881 623.105 180.174 623.296 182.276C623.296 186.098 621.958 189.729 620.621 193.36C619.283 196.799 618.901 201.959 616.417 204.634C614.506 206.927 611.257 208.456 608.199 209.412C602.275 211.323 595.969 212.469 589.854 212.851C582.21 213.425 574.949 212.66 567.496 212.278C558.515 211.705 549.151 213.234 540.361 213.616C544.947 235.018 550.489 256.23 554.693 277.633C549.151 279.353 543.609 280.499 537.876 281.646C536.539 281.837 535.392 282.219 534.054 282.601C533.863 282.219 533.672 281.837 533.481 281.455C526.793 269.224 519.149 257.759 513.989 244.764C509.212 232.916 504.435 220.304 504.244 207.31C504.244 201.959 504.626 193.742 508.448 189.347C508.83 188.773 509.594 188.009 510.55 187.436Z" fill="#F5BA00"/>
<path d="M595.969 80.9958C595.396 78.7027 595.014 76.6006 594.441 74.3075C593.676 71.0589 592.912 67.6191 591.574 64.5616C590.237 61.5041 588.326 58.4466 585.65 56.3445C584.504 55.389 582.975 54.6247 581.446 54.2425C580.3 54.0514 578.962 54.0514 577.815 54.2425C575.331 54.4336 573.038 54.8158 570.745 55.7712C563.292 58.8288 565.203 70.6767 567.305 76.4095C568.452 79.2759 569.98 82.5246 573.038 83.6711C573.993 84.0533 575.14 84.0533 576.095 84.6266C578.58 85.7732 580.108 89.2129 580.682 91.6971C581.255 93.6081 581.446 95.519 581.637 97.43C581.637 98.3855 581.255 100.296 582.019 100.87C582.784 101.443 585.65 100.87 586.415 100.679C589.472 99.9142 592.339 98.5766 594.823 96.6656C595.969 95.9012 597.116 94.9458 597.88 93.7992C599.218 91.6971 598.263 90.5506 597.498 88.6396C596.734 86.3465 596.543 83.48 595.969 80.9958Z" fill="#FF735F"/>
<path d="M561.572 370.696C560.808 372.798 560.043 374.709 559.088 376.238C557.75 378.722 555.839 381.015 555.075 383.691C554.31 386.366 554.693 389.806 557.177 391.334C559.088 392.672 561.572 392.29 563.865 391.908C566.349 391.526 568.834 390.952 570.745 389.424C572.273 388.086 573.229 386.175 573.802 384.264C574.949 381.206 575.522 378.149 575.904 374.9C576.095 373.372 576.286 371.652 577.051 370.123C578.579 367.448 582.019 366.11 583.166 363.243C583.93 361.333 583.357 359.23 582.784 357.32C581.637 353.115 580.873 348.72 580.299 344.325C580.108 342.414 580.682 334.388 579.344 333.241C576.095 330.566 562.91 338.21 559.47 339.357C560.234 339.165 563.674 357.319 563.674 359.039C563.674 362.479 562.91 366.874 561.572 370.696Z" fill="#19034D"/>
<path d="M594.823 67.6193C594.823 67.4282 594.823 67.2371 594.823 67.046C595.014 62.8419 595.396 58.2556 592.529 54.8159C590.045 51.7584 586.606 51.1851 581.828 50.8029C576.286 50.4207 569.216 48.7009 563.865 50.4207C561.572 50.994 559.279 53.0961 559.279 55.5803C559.279 58.2556 561.763 60.1666 564.247 60.931C568.643 62.0775 575.331 59.2111 577.242 65.3262C578.388 68.957 578.58 72.2056 582.593 73.7343C585.077 74.6898 587.752 74.4987 590.236 73.5432C591.383 73.1611 592.721 72.5878 593.485 71.4412C594.44 70.2946 594.632 68.957 594.823 67.6193Z" fill="#19034D"/>
<path d="M589.09 45.8341C589.09 45.643 589.281 45.4519 589.281 45.4519C589.663 44.8786 590.619 44.4964 591.383 45.4519C591.765 45.8341 591.765 46.4074 591.574 46.5985C591.383 47.3628 590.81 47.745 590.045 47.5539C589.09 47.3628 588.899 46.5985 589.09 45.8341Z" fill="#E01919"/>
<path d="M561.763 45.2609C562.91 45.452 563.865 45.8342 565.012 46.0253C566.732 46.5985 568.451 46.9807 570.171 47.554C570.745 47.7451 571.318 47.9362 571.891 47.9362C572.464 47.9362 572.656 47.7451 573.038 47.3629C573.802 46.5985 574.567 46.0253 575.522 45.452C576.286 45.0698 577.051 44.6876 577.815 44.4965C579.344 43.9232 581.064 43.7321 582.784 43.7321C583.166 43.7321 583.357 43.7321 583.739 43.7321C587.37 44.1143 591.001 46.0253 593.294 48.8917C595.587 51.7581 596.925 55.58 596.542 59.2108C596.542 59.593 596.351 60.3574 595.969 60.5485C595.587 60.7396 595.205 60.5485 594.823 60.3574C593.676 59.9752 592.721 59.593 591.765 59.0197C590.81 58.6375 589.854 58.2554 589.09 57.8732C588.325 57.491 587.561 57.2999 586.797 56.9177C579.917 54.0513 573.038 51.1848 565.967 48.7006C564.247 48.1273 562.336 47.3629 560.617 46.7896C560.043 46.5985 558.323 46.0253 558.897 45.0698C559.088 44.6876 559.661 44.6876 560.043 44.6876C560.425 45.0698 561.19 45.2609 561.763 45.2609Z" fill="#0C7B7D"/>
<path d="M629.029 183.614C629.029 181.321 629.029 178.836 628.647 176.352C620.238 175.97 611.639 175.206 603.231 174.059C603.804 174.059 602.084 177.308 601.702 177.69C600.747 178.836 599.218 179.219 597.88 179.792C594.441 181.321 590.81 183.232 587.752 185.334C579.535 191.067 575.331 196.608 569.598 205.017C564.056 213.234 561.572 222.597 557.559 231.388C552.973 241.516 550.107 251.644 549.533 262.918C549.533 263.683 549.533 264.447 549.533 265.212C549.151 276.868 550.68 288.716 552.017 300.373C554.311 317.954 556.413 335.726 558.706 353.306C566.923 352.733 574.949 350.631 582.975 349.102C582.975 348.911 582.975 348.72 582.975 348.72C585.268 318.145 584.695 286.996 592.339 257.186C595.969 242.853 606.862 232.343 614.888 220.304C622.914 208.838 628.838 197.182 629.029 183.614Z" fill="#F5BA00"/>
<path d="M599.027 184.952C603.04 191.258 610.492 193.36 617.181 190.111C618.136 189.538 619.092 191.067 618.136 191.64C611.066 195.08 603.231 193.36 598.453 187.245C598.262 187.245 598.262 187.054 598.071 186.863C597.88 186.48 597.689 186.098 597.498 185.907C596.925 184.761 598.453 183.996 599.027 184.952Z" fill="#320699"/>
<path d="M582.402 98.1945C582.784 98.1945 581.446 91.5061 581.255 90.7418C580.873 89.4041 580.3 88.2575 579.726 87.1109C579.344 86.5377 577.815 85.0089 578.962 84.6267C580.3 84.2445 582.019 84.6267 583.357 84.2445C585.65 83.6712 587.943 82.9069 589.854 81.7603C589.09 86.5377 587.561 91.124 585.268 95.5191C584.695 96.6657 583.93 98.1945 582.402 98.1945Z" fill="url(#paint5_linear_117_36)"/>
<path d="M578.197 72.0142V70.6765C578.197 69.721 578.58 68.7656 579.535 68.3834C582.019 67.2368 585.841 67.619 586.797 70.6765C588.134 74.3073 583.548 76.0272 580.682 75.8361C579.344 75.645 578.006 74.6895 578.006 73.1607C578.006 72.9697 578.006 72.9697 578.006 72.7786C578.197 72.5875 578.197 72.3964 578.197 72.0142Z" fill="#FF735F"/>
<path opacity="0.6" d="M565.585 212.278C567.496 208.074 570.362 204.252 572.656 200.43C574.949 196.608 577.242 192.213 577.815 187.627C567.687 197.946 555.839 206.736 542.845 213.425C550.489 213.043 557.941 212.851 565.585 212.278Z" fill="url(#paint6_linear_117_36)"/>
<path d="M572.656 70.2943L549.151 73.9251V63.2238L572.656 66.6635V70.2943Z" fill="#19034D"/>
<path d="M314.677 104.5L305.313 105.647C308.753 105.647 311.811 105.265 314.677 104.5Z" fill="#0C7B7D"/>
<path d="M314.677 104.5L551.062 76.9825C555.075 76.6003 558.133 72.9695 558.133 68.9565C558.133 64.9435 555.075 61.5038 551.062 60.9305L310.091 29.782C330.92 32.2663 339.52 50.8025 339.52 70.1031C339.52 87.875 331.494 100.869 314.677 104.5Z" fill="#0C7B7D"/>
<path opacity="0.34" d="M304.358 102.972C323.883 102.972 339.711 87.1438 339.711 67.619C339.711 48.0943 323.883 32.2664 304.358 32.2664C284.833 32.2664 269.005 48.0943 269.005 67.619C269.005 87.1438 284.833 102.972 304.358 102.972Z" fill="#0C3DF0"/>
<path d="M304.358 102.972C323.883 102.972 339.711 87.1438 339.711 67.619C339.711 48.0943 323.883 32.2664 304.358 32.2664C284.833 32.2664 269.005 48.0943 269.005 67.619C269.005 87.1438 284.833 102.972 304.358 102.972Z" stroke="#19034D" stroke-width="6" stroke-miterlimit="10"/>
<path d="M305.887 87.6842C301.109 87.6842 296.141 85.9643 292.128 82.9068C286.777 78.7027 283.529 72.5876 283.147 66.0904C282.955 61.5041 284.293 56.7267 286.968 52.9048C287.733 51.9493 289.07 51.7582 290.026 52.5226L290.217 52.7137C290.981 53.4781 291.173 54.6247 290.599 55.389C288.497 58.4466 287.351 62.2685 287.542 66.0904C287.733 71.25 290.408 76.2184 294.803 79.6581C298.816 82.7157 303.594 84.0533 308.18 83.4801C309.327 83.289 310.282 84.0533 310.473 85.0088V85.1999C310.855 86.3465 309.9 87.4931 308.753 87.6842C307.607 87.6842 306.651 87.6842 305.887 87.6842Z" fill="white"/>
<path d="M357.673 103.927V101.825C376.592 101.825 391.88 86.5375 391.88 67.6191C391.88 48.7007 376.592 33.4131 357.673 33.4131V31.311C377.738 31.311 393.982 47.5541 393.982 67.6191C393.982 87.6841 377.738 103.927 357.673 103.927Z" fill="#19034D"/>
<path d="M412.327 97.4297V95.3277C427.614 95.3277 440.035 82.9065 440.035 67.6188C440.035 52.3312 427.614 39.91 412.327 39.91V37.808C428.761 37.808 442.329 51.1847 442.329 67.8099C442.329 84.4352 428.761 97.4297 412.327 97.4297Z" fill="#19034D"/>
<path d="M510.55 84.6267V82.5246C518.767 82.5246 525.455 75.8363 525.455 67.6192C525.455 59.4021 518.767 52.7138 510.55 52.7138V50.6117C519.913 50.6117 527.748 58.2555 527.748 67.8103C527.748 77.3651 520.104 84.6267 510.55 84.6267Z" fill="#19034D"/>
<path d="M464.687 91.124V89.0219C476.535 89.0219 486.089 79.4672 486.089 67.6193C486.089 55.7714 476.535 46.2166 464.687 46.2166V43.9235C477.681 43.9235 488.192 54.4337 488.192 67.4282C488.192 80.4227 477.681 91.124 464.687 91.124Z" fill="#19034D"/>
<path d="M569.025 77.5564C570.363 77.1742 571.509 76.6009 572.847 76.0276" stroke="#19034D" stroke-width="0.5" stroke-miterlimit="10"/>
<path d="M520.678 90.3591C520.105 89.0214 519.531 87.6837 518.958 86.5372C518.385 85.3906 517.62 84.0529 517.62 82.7152C517.62 80.8043 517.811 79.0844 517.429 77.1735C517.047 75.6447 516.856 74.116 516.474 72.5872C516.283 72.0139 514.754 66.09 513.607 67.2365C513.416 67.4276 513.416 67.6187 513.416 67.8098C513.034 69.9119 513.416 71.8228 513.034 73.9249C513.034 74.3071 512.652 74.8803 512.27 74.6892C511.505 74.3071 510.741 71.2495 510.55 70.4852C509.403 68.0009 508.257 65.7078 507.301 63.2235C506.537 61.6948 505.39 59.7838 503.67 59.9749C502.715 59.9749 501.95 60.7393 501.568 61.6948C501.186 62.4591 500.995 63.4146 500.804 64.3701C500.613 66.09 500.422 67.8098 500.04 69.5297C499.848 70.4852 499.657 71.6317 499.848 72.5872C500.04 73.5427 500.231 74.4982 500.613 75.2625C501.759 78.5112 502.333 81.9509 504.435 84.6262C506.537 87.3015 509.594 89.4036 511.123 92.27C512.079 93.6077 512.461 95.1364 513.607 96.4741C514.372 97.4296 515.327 98.194 516.474 98.194C518.385 98.194 520.678 96.0919 521.251 94.3721C521.633 93.2255 521.251 91.8878 520.678 90.3591Z" fill="#FF735F"/>
<path d="M592.53 137.751C575.904 142.146 562.336 141.764 545.329 136.223C524.882 129.534 518.002 113.673 510.167 94.5638C513.989 91.6973 518.002 89.2131 522.015 86.5378C534.437 108.132 541.698 117.495 567.114 119.024C573.42 119.406 576.095 118.642 581.255 116.349C587.752 113.291 591.192 107.176 596.351 102.208C597.689 100.87 599.791 99.5322 601.511 98.5767C602.658 98.0035 603.613 97.048 605.142 97.048C606.671 97.048 608.008 97.8124 609.155 98.7678C611.257 100.488 613.55 102.399 614.888 104.692C616.225 106.985 616.608 109.087 615.843 111.571C613.932 119.406 609.346 125.33 603.422 130.872C601.893 132.401 600.364 133.356 598.454 134.503C596.734 135.458 595.014 136.987 592.53 137.751Z" fill="#E01919"/>
<path opacity="0.6" d="M603.804 133.929C600.173 136.031 596.352 137.368 592.339 138.515C588.708 140.044 584.313 141.573 581.064 141.19C580.873 141.19 580.682 141.381 580.491 141.381C590.045 146.159 599.218 151.51 608.008 157.433C608.008 157.433 609.537 153.42 611.639 148.261C613.168 140.235 614.315 132.209 615.652 124.183C612.404 128.196 607.817 131.445 603.804 133.929Z" fill="url(#paint7_linear_117_36)"/>
</g>
<defs>
<linearGradient id="paint0_linear_117_36" x1="580.839" y1="587.583" x2="581.73" y2="587.686" gradientUnits="userSpaceOnUse">
<stop offset="0.0184362" stop-color="#022A5D"/>
<stop offset="1" stop-color="#0C4691"/>
</linearGradient>
<linearGradient id="paint1_linear_117_36" x1="587.898" y1="615.144" x2="556.534" y2="597.929" gradientUnits="userSpaceOnUse">
<stop offset="0.2654" stop-color="#201B59" stop-opacity="0.9148"/>
<stop offset="0.5554" stop-color="#0C7B7D" stop-opacity="0"/>
</linearGradient>
<linearGradient id="paint2_linear_117_36" x1="557.955" y1="540.106" x2="582.481" y2="552.841" gradientUnits="userSpaceOnUse">
<stop offset="0.1594" stop-color="#201B59" stop-opacity="0.9148"/>
<stop offset="0.7166" stop-color="#FFCC00" stop-opacity="0"/>
</linearGradient>
<linearGradient id="paint3_linear_117_36" x1="536.175" y1="492.855" x2="554.569" y2="507.948" gradientUnits="userSpaceOnUse">
<stop offset="0.2654" stop-color="#201B59" stop-opacity="0.9148"/>
<stop offset="0.5554" stop-color="#FF735F" stop-opacity="0"/>
</linearGradient>
<linearGradient id="paint4_linear_117_36" x1="192.032" y1="553.726" x2="163.437" y2="560.15" gradientUnits="userSpaceOnUse">
<stop offset="0.1594" stop-color="#201B59" stop-opacity="0.9148"/>
<stop offset="0.7166" stop-color="#FFCC00" stop-opacity="0"/>
</linearGradient>
<linearGradient id="paint5_linear_117_36" x1="584.754" y1="77.7557" x2="582.679" y2="97.8515" gradientUnits="userSpaceOnUse">
<stop offset="0.2654" stop-color="#201B59" stop-opacity="0.9148"/>
<stop offset="0.5554" stop-color="#FF735F" stop-opacity="0"/>
</linearGradient>
<linearGradient id="paint6_linear_117_36" x1="580.1" y1="218.951" x2="548.109" y2="189.046" gradientUnits="userSpaceOnUse">
<stop offset="0.2654" stop-color="#19034D" stop-opacity="0.9148"/>
<stop offset="0.5554" stop-color="#320699" stop-opacity="0"/>
</linearGradient>
<linearGradient id="paint7_linear_117_36" x1="595.5" y1="110.04" x2="602.274" y2="169.707" gradientUnits="userSpaceOnUse">
<stop offset="0.2654" stop-color="#19034D" stop-opacity="0.9148"/>
<stop offset="0.5554" stop-color="#320699" stop-opacity="0"/>
</linearGradient>
<clipPath id="clip0_117_36">
<rect width="793" height="737" fill="white"/>
</clipPath>
</defs>
</svg>
